HIERARCHY
ROOT Hips
{
  OFFSET -32.5998 29.0326 120.673
  CHANNELS 6 Xposition Yposition Zposition Zrotation Xrotation Yrotation
  JOINT LeftUpLeg
  {
    OFFSET 8.64259 1.95398 -2.38835
    CHANNELS 3 Zrotation Xrotation Yrotation
    JOINT LeftLeg
    {
      OFFSET 43.7702 0 0
      CHANNELS 3 Zrotation Xrotation Yrotation
      JOINT LeftFoot
      {
        OFFSET 40.6238 0 0
        CHANNELS 3 Zrotation Xrotation Yrotation
        JOINT LeftToeBase
        {
          OFFSET 12.7242 0 0
          CHANNELS 3 Zrotation Xrotation Yrotation
          End Site
          {
            OFFSET 0 0 0
          }
        }
      }
    }
  }
  JOINT RightUpLeg
  {
    OFFSET -8.2249 1.95398 -2.59336
    CHANNELS 3 Zrotation Xrotation Yrotation
    JOINT RightLeg
    {
      OFFSET 43.5653 0 0
      CHANNELS 3 Zrotation Xrotation Yrotation
      JOINT RightFoot
      {
        OFFSET 40.6238 0 0
        CHANNELS 3 Zrotation Xrotation Yrotation
        JOINT RightToeBase
        {
          OFFSET 12.7242 0 0
          CHANNELS 3 Zrotation Xrotation Yrotation
          End Site
          {
            OFFSET 0 0 0
          }
        }
      }
    }
  }
  JOINT Spine
  {
    OFFSET 0.165834 0.87714 6.61349
    CHANNELS 3 Zrotation Xrotation Yrotation
    JOINT Spine1
    {
      OFFSET 7.38963 1.71661e-005 0
      CHANNELS 3 Zrotation Xrotation Yrotation
      JOINT Spine2
      {
        OFFSET 11.9445 1.14441e-005 0
        CHANNELS 3 Zrotation Xrotation Yrotation
        JOINT Spine3
        {
          OFFSET 14.7254 4.19617e-005 0
          CHANNELS 3 Zrotation Xrotation Yrotation
          JOINT Spine4
          {
            OFFSET 10.9679 0 0
            CHANNELS 3 Zrotation Xrotation Yrotation
            JOINT RightShoulder
            {
              OFFSET 2.46616 -1.6653 3.69651
              CHANNELS 3 Zrotation Xrotation Yrotation
              JOINT RightArm
              {
                OFFSET 13.0012 0 0
                CHANNELS 3 Zrotation Xrotation Yrotation
                JOINT RightForeArm
                {
                  OFFSET 28.7848 1.62311e-005 0
                  CHANNELS 3 Zrotation Xrotation Yrotation
                  JOINT RightHand
                  {
                    OFFSET 26.5688 1.62095e-005 0
                    CHANNELS 3 Zrotation Xrotation Yrotation
                    End Site
                    {
                      OFFSET 0 0 0
                    }
                  }
                }
              }
            }
            JOINT LeftShoulder
            {
              OFFSET 2.38034 -1.29275 -3.7523
              CHANNELS 3 Zrotation Xrotation Yrotation
              JOINT LeftArm
              {
                OFFSET 16.3182 6.07031e-005 0
                CHANNELS 3 Zrotation Xrotation Yrotation
                JOINT LeftForeArm
                {
                  OFFSET 27.0901 0 0
                  CHANNELS 3 Zrotation Xrotation Yrotation
                  JOINT LeftHand
                  {
                    OFFSET 24.5451 1.51738e-005 0
                    CHANNELS 3 Zrotation Xrotation Yrotation
                    End Site
                    {
                      OFFSET 0 0 0
                    }
                  }
                }
              }
            }
            JOINT Neck
            {
              OFFSET 5.0226 -0.0266342 0
              CHANNELS 3 Zrotation Xrotation Yrotation
              JOINT Head
              {
                OFFSET 6.69364 2.86102e-005 0
                CHANNELS 3 Zrotation Xrotation Yrotation
                End Site
                {
                  OFFSET 0 0 0
                }
              }
            }
          }
        }
      }
    }
  }
}
MOTION
Frames:	12
Frame Time:	0.0416667
283.857 81.1469 284.921 -79.7186 40.1228 -103.355 -164.002 51.2923 74.2605 -73.1449 5.40989 -6.56401 89.4215 14.3009 -0.574554 17.618 -5.91185 2.15568 169.9 13.1727 91.5305 -105.083 -4.05555 -3.27155 71.0229 2.05276 3.29694 92.9051 -21.4695 15.6759 1.05765 8.18151 -88.7716 10.481 2.67033 2.20429 -1.18889 2.76473 2.08461 -23.7215 1.88468 2.90465 -3.70889 1.88469 2.90465 93.1849 -21.3699 -103.276 25.8486 39.8138 1.19301 -37.5038 -13.3542 -104.347 -47.9357 9.99468 -27.7248 -90.6133 -48.9023 77.5627 -6.59512 6.04399 -12.8853 172.109 -9.74911 -57.6243 -125.327 -26.6159 10.2349 21.5609 -8.88687 -14.9945 -6.9914 -3.7986 3.75661 
271.107 88.7679 270.215 -83.6164 38.1777 -103.627 -170.708 23.127 79.0861 -52.764 -2.08099 -4.29253 95.5603 16.4911 -9.50461 27.2795 -0.641179 0.203122 170.05 28.4456 87.9846 -108.417 -1.17066 -3.45397 71.9917 -6.96045 -6.69729 52.7219 -10.3155 7.61866 -0.10732 8.19416 -88.4145 10.4707 0.513188 3.09338 -1.20428 0.648736 3.06783 -23.7069 -0.439638 3.10472 -3.69424 -0.439635 3.10472 94.8497 -23.3798 -98.7793 20.0858 28.9267 24.1564 -33.9434 -5.23175 -121.608 -53.6034 14.6428 -34.2084 -89.8134 -48.3881 78.6638 -5.19635 17.8924 -45.9285 -142.99 13.8059 -78.6128 -116.836 12.4646 -12.2199 17.3838 -5.64023 -15.1052 -6.13972 -1.14991 2.85939 
257.852 89.5338 256.956 -85.2707 37.8899 -96.9142 -170.913 3.61916 88.4168 -40.1323 4.65296 -1.83082 96.9345 21.7479 -5.81613 35.5187 0.998398 4.95905 174.046 44.0711 92.1361 -105.265 -7.02624 -3.65741 76.3636 -10.4234 -9.40098 19.792 0.512908 11.0685 -1.63048 8.18687 -89.0729 10.519 -2.82142 2.11348 -1.15054 -2.72568 2.23561 -23.7067 -3.32607 1.16724 -3.69407 -3.32606 1.16725 95.787 -18.0389 -98.2364 24.6426 12.8668 36.8677 0.476812 -21.7776 -119.109 -40.6157 26.2427 -67.0669 -85.9868 -35.0545 82.1352 -10.0681 10.4164 -62.2222 -116.059 9.90635 -77.579 -18.797 3.26596 -23.8453 17.3168 1.72209 -10.9947 -8.02476 4.78571 2.73349 
243.809 92.8798 241.889 -87.0111 42.5801 -88.7404 -166.982 -15.9348 97.4768 -20.1208 10.2589 -0.297366 67.267 6.71336 2.52357 59.7131 11.2176 3.40966 177.922 49.4489 97.2911 -80.3087 -2.14225 -2.31153 75.1411 -7.21678 -4.59109 22.3223 -0.474903 11.282 -2.31349 7.82732 -90.2755 11.2357 -4.73218 -0.0784072 -0.426659 -4.73102 0.130411 -23.0262 -4.48951 -1.49989 -3.01352 -4.48949 -1.49988 96.693 -14.0025 -97.1247 33.6436 -6.44024 46.1022 8.88172 -16.265 -114.806 -24.7148 18.1912 -80.1537 -84.7257 -28.7722 83.2138 -20.1101 0.905302 -57.0963 -125.305 8.97653 -68.9079 -24.4771 4.40108 -27.0532 15.5261 9.49765 -2.85218 -14.7332 9.72293 3.23872 
228.925 95.9704 225.882 -85.7744 48.1327 -83.9585 -167.79 -22.8924 99.5279 -19.7461 11.1929 3.35678 54.5673 -4.1775 0.746521 14.252 -4.91589 -2.31968 -177.598 45.2438 100.185 -44.3884 -6.5591 -1.1804 70.055 -5.03286 -0.936167 21.0679 1.7144 5.61533 -2.6341 7.95002 -91.515 10.913 -5.9448 -2.45307 -0.746193 -6.04695 -2.18831 -23.3437 -4.93282 -4.12867 -3.33102 -4.93281 -4.12867 94.7553 -10.0629 -104.258 43.5703 -10.2206 49.908 -19.1216 3.98554 -112.854 -33.6943 16.2514 -56.5255 -83.4375 -26.9722 85.4485 -14.7398 -5.98727 -48.4422 -132.006 9.59037 -62.822 -22.2492 4.1205 -28.0686 16.7788 16.5836 6.8814 -16.2265 13.9243 2.74018 
215.575 95.073 211.272 -89.0192 51.7221 -84.143 -169.142 -24.1062 93.4747 -38.0852 19.5928 0.898671 59.8859 -0.184676 5.03952 23.6402 0.205281 -5.20136 -176.476 38.4396 98.3124 -28.9533 -18.6127 -1.65645 71.6716 -7.83179 -1.8505 26.4266 0.214414 3.2131 -2.23502 7.87321 -91.3663 11.0839 -5.08251 -2.22159 -0.578611 -5.17533 -1.99529 -23.1571 -4.18 -3.64769 -3.14446 -4.18001 -3.64769 94.167 -16.3045 -103.06 44.1301 -11.8509 44.56 -28.4979 9.48064 -100.352 -28.3119 8.4927 -38.9614 -85.6912 -32.661 82.1747 -6.8724 7.51643 -39.4807 -133.939 9.0963 -68.0503 -19.4289 3.15182 -25.7573 14.2168 17.1221 8.33273 -13.8857 14.3657 2.28447 
202.684 93.4831 196.343 -97.9061 51.7145 -78.9712 -163.591 -15.3763 95.9823 -67.0929 -0.470346 -0.446503 61.9308 -0.475822 5.23838 25.0167 2.01825 -8.25328 -179.68 28.9383 97.9224 -32.5423 -12.6451 -0.484606 67.9659 -4.37119 -1.17662 22.6536 0.841643 6.25751 -1.78724 8.16813 -91.0751 10.5047 -4.05367 -1.77722 -1.16085 -4.12793 -1.59686 -23.724 -3.33219 -2.91404 -3.71139 -3.33218 -2.91404 93.1021 -24.3111 -102.286 38.1272 -6.40952 29.2573 -35.8072 7.91293 -92.8592 -21.2155 1.76382 -13.7975 -86.806 -42.3914 82.1523 -4.86936 23.2582 -27.8915 -141.246 0.191715 -80.5633 -20.8014 3.38789 -25.4943 11.8415 15.3074 9.38351 -11.9825 12.6383 1.52862 
192.498 91.9973 182.404 -102.094 53.2758 -70.2705 -159.047 4.868 104.427 -91.7675 -7.62576 2.43745 68.1314 3.2161 8.98711 19.6711 -0.0356202 -7.57151 178.644 25.936 104.745 -48.3795 -12.7826 0.890315 68.7491 -5.34856 -4.60476 20.0633 1.92543 6.18985 -0.378476 8.3154 -91.715 10.2097 -1.53683 -3.27818 -1.46437 -1.67956 -3.20748 -23.9658 -0.481298 -3.58804 -3.95317 -0.481286 -3.58804 91.8913 -28.7027 -103.447 33.8073 3.80892 7.77872 -38.1994 9.59578 -97.5241 -19.3645 -1.87192 5.67867 -88.1507 -49.5412 81.4222 -8.91178 32.2703 -12.1862 -137.88 -3.08799 -89.916 -16.4601 1.85683 -19.9483 12.3439 11.3887 10.0161 -11.8595 8.59446 1.177 
181.86 90.9973 170.348 -105.079 50.7036 -67.3714 -168.159 24.5663 100.175 -99.5957 5.01232 3.82476 73.5043 7.98099 10.779 18.9869 0.491644 -9.12038 176.953 13.0401 104.516 -53.7194 -12.7739 1.17254 79.4869 -14.336 -7.02914 26.6799 -0.66708 6.14196 0.485547 8.50316 -91.7575 9.85701 0.170899 -3.50074 -1.81865 0.016778 -3.50489 -24.3194 1.21453 -3.28799 -4.30681 1.21455 -3.28799 90.3588 -29.539 -106.22 31.8396 16.006 -16.4051 -32.6879 6.43955 -103.542 -23.8633 -2.5894 7.31996 -86.4499 -47.3083 83.6252 -22.0707 32.6822 13.7751 -139.026 2.47966 -85.2732 -16.5069 2.06745 -21.646 14.5171 6.69583 6.69027 -11.6811 4.60944 1.95593 
169.42 92.4805 157.763 -100.523 49.2956 -76.4794 -171.626 37.2319 89.3838 -80.5057 -2.93669 2.08526 77.975 9.83995 8.10007 21.5664 1.37992 -9.23108 173.011 1.12018 91.9113 -44.1897 -16.137 0.732592 82.719 -16.7197 -6.44105 31.4759 -2.45169 6.01739 1.61475 7.90426 -90.9703 11.0937 2.76399 -2.19282 -0.576536 2.66483 -2.31233 -23.1282 3.29516 -1.26036 -3.11557 3.29517 -1.26037 91.7132 -23.4356 -105.762 40.7804 32.8386 -29.5519 -33.2055 4.19142 -113.349 -24.2906 -3.06702 9.34725 -85.3091 -43.7072 84.8576 -27.8784 37.2136 32.8389 -136.122 9.95736 -81.0496 -17.3123 2.09195 -20.9111 12.9289 -0.810861 2.87668 -11.7732 -1.55592 0.606884 
155.158 96.6669 142.986 -101.796 49.171 -79.1155 -174.301 30.9633 86.0664 -40.7337 -8.16861 -0.876498 71.4736 7.10662 3.0339 25.2178 2.35824 -8.71418 171.17 -19.4307 91.3214 -29.6336 -21.1202 -1.79199 66.3826 -3.32589 -5.62699 30.3813 -2.56355 8.60008 2.99934 7.77422 -90.0929 11.3655 5.9253 -0.779687 -0.292286 5.88519 -1.04061 -22.9347 5.88481 1.04349 -2.92204 5.88482 1.04349 94.1864 -15.0504 -103.536 44.9323 42.9665 -25.8522 -25.5612 1.75767 -123.459 -24.2108 -2.75112 7.89127 -84.319 -35.977 85.3182 -31.1865 35.7775 44.2746 -134.83 14.4531 -76.4809 -16.1189 1.64138 -18.5506 14.7258 -8.75508 -4.46371 -16.6301 -7.2647 -0.519762 
141.128 98.858 128.441 -99.0947 49.9002 -82.1736 -178.058 23.7141 86.1899 -10.6876 -0.570893 -0.792632 67.658 5.75565 -5.86256 19.4308 -7.83869 6.91206 168.973 -24.8493 85.73 -29.1885 -17.6104 -2.79969 61.8377 0.937619 -2.19489 20.7983 1.69463 6.00038 3.49752 7.43128 -89.5702 12.0252 7.15631 0.0746431 0.374051 7.15263 -0.242042 -22.3088 6.80136 2.23211 -2.29616 6.80136 2.2321 95.3586 -8.85468 -103.076 36.6507 34.0531 -17.1604 -22.5565 6.01911 -128.107 -22.8093 -2.18709 5.91421 -83.3269 -30.1956 86.2367 -33.7938 26.4593 53.5873 -133.1 18.6146 -70.0214 -15.455 1.16155 -15.2876 15.1951 -11.689 -8.38704 -18.0346 -8.97342 -1.39315 
